<mxfile host="app.diagrams.net" modified="2024-05-18T03:18:49.768Z" agent="Mozilla/5.0 (Windows NT 10.0; Win64; x64) AppleWebKit/537.36 (KHTML, like Gecko) Chrome/124.0.0.0 Safari/537.36" etag="aGwwEY5eij-0ey3cDOLr" version="24.4.4" type="google">
  <diagram name="PÃ¡gina-1" id="_bNyMbZIDsPz4JoQTeyZ">
    <mxGraphModel grid="1" page="1" gridSize="10" guides="1" tooltips="1" connect="1" arrows="1" fold="1" pageScale="1" pageWidth="827" pageHeight="1169" math="0" shadow="0">
      <root>
        <mxCell id="0" />
        <mxCell id="1" parent="0" />
        <mxCell id="83I6h4TTCErfjEF87RVj-1" value="" style="endArrow=classic;html=1;rounded=0;strokeWidth=4;" edge="1" parent="1">
          <mxGeometry width="50" height="50" relative="1" as="geometry">
            <mxPoint x="412" y="70" as="sourcePoint" />
            <mxPoint x="412" y="420" as="targetPoint" />
          </mxGeometry>
        </mxCell>
        <mxCell id="83I6h4TTCErfjEF87RVj-2" value="&lt;b&gt;&lt;font style=&quot;font-size: 14px;&quot;&gt;Inicia el CU03&lt;/font&gt;&lt;/b&gt;" style="text;html=1;align=center;verticalAlign=middle;whiteSpace=wrap;rounded=0;" vertex="1" parent="1">
          <mxGeometry x="352" y="40" width="130" height="30" as="geometry" />
        </mxCell>
        <mxCell id="83I6h4TTCErfjEF87RVj-3" value="" style="endArrow=none;html=1;rounded=0;" edge="1" parent="1">
          <mxGeometry width="50" height="50" relative="1" as="geometry">
            <mxPoint x="573" y="370" as="sourcePoint" />
            <mxPoint x="613" y="370" as="targetPoint" />
          </mxGeometry>
        </mxCell>
        <mxCell id="83I6h4TTCErfjEF87RVj-4" value="" style="endArrow=none;html=1;rounded=0;" edge="1" parent="1">
          <mxGeometry width="50" height="50" relative="1" as="geometry">
            <mxPoint x="583" y="390" as="sourcePoint" />
            <mxPoint x="603" y="390" as="targetPoint" />
          </mxGeometry>
        </mxCell>
        <mxCell id="83I6h4TTCErfjEF87RVj-5" value="" style="endArrow=none;html=1;rounded=0;" edge="1" parent="1">
          <mxGeometry width="50" height="50" relative="1" as="geometry">
            <mxPoint x="583" y="380" as="sourcePoint" />
            <mxPoint x="603" y="380" as="targetPoint" />
          </mxGeometry>
        </mxCell>
        <mxCell id="83I6h4TTCErfjEF87RVj-6" value="&lt;b&gt;&lt;font style=&quot;font-size: 14px;&quot;&gt;Fin de caso de uso&lt;/font&gt;&lt;/b&gt;" style="text;html=1;align=center;verticalAlign=middle;whiteSpace=wrap;rounded=0;" vertex="1" parent="1">
          <mxGeometry x="529" y="395.20000000000005" width="130" height="30" as="geometry" />
        </mxCell>
        <mxCell id="83I6h4TTCErfjEF87RVj-7" value="" style="endArrow=none;html=1;rounded=0;edgeStyle=orthogonalEdgeStyle;curved=1;endFill=0;" edge="1" parent="1">
          <mxGeometry width="50" height="50" relative="1" as="geometry">
            <mxPoint x="412" y="140" as="sourcePoint" />
            <mxPoint x="592" y="350" as="targetPoint" />
          </mxGeometry>
        </mxCell>
        <mxCell id="83I6h4TTCErfjEF87RVj-8" value="&lt;b&gt;&lt;font style=&quot;font-size: 14px;&quot;&gt;Fin de caso de uso&lt;/font&gt;&lt;/b&gt;" style="text;html=1;align=center;verticalAlign=middle;whiteSpace=wrap;rounded=0;" vertex="1" parent="1">
          <mxGeometry x="346" y="425.20000000000005" width="130" height="30" as="geometry" />
        </mxCell>
        <mxCell id="83I6h4TTCErfjEF87RVj-9" value="&lt;div&gt;&lt;span style=&quot;background-color: rgb(255, 255, 255); font-family: Arial; font-size: 13px; white-space-collapse: preserve;&quot;&gt;CU03_2&lt;/span&gt;&lt;/div&gt;&lt;div&gt;&lt;span style=&quot;font-family: Arial; font-size: 13px; white-space-collapse: preserve; background-color: rgb(255, 255, 255);&quot;&gt;Cancela modal de confirmacion&lt;/span&gt;&lt;br&gt;&lt;/div&gt;" style="text;html=1;align=center;verticalAlign=middle;whiteSpace=wrap;rounded=0;" vertex="1" parent="1">
          <mxGeometry x="442" y="100" width="98" height="30" as="geometry" />
        </mxCell>
        <mxCell id="83I6h4TTCErfjEF87RVj-10" value="" style="endArrow=none;html=1;rounded=0;" edge="1" parent="1">
          <mxGeometry width="50" height="50" relative="1" as="geometry">
            <mxPoint x="213" y="251.39999999999998" as="sourcePoint" />
            <mxPoint x="253" y="251.39999999999998" as="targetPoint" />
          </mxGeometry>
        </mxCell>
        <mxCell id="83I6h4TTCErfjEF87RVj-11" value="" style="endArrow=none;html=1;rounded=0;" edge="1" parent="1">
          <mxGeometry width="50" height="50" relative="1" as="geometry">
            <mxPoint x="223" y="271.4" as="sourcePoint" />
            <mxPoint x="243" y="271.4" as="targetPoint" />
          </mxGeometry>
        </mxCell>
        <mxCell id="83I6h4TTCErfjEF87RVj-12" value="" style="endArrow=none;html=1;rounded=0;" edge="1" parent="1">
          <mxGeometry width="50" height="50" relative="1" as="geometry">
            <mxPoint x="223" y="261.4" as="sourcePoint" />
            <mxPoint x="243" y="261.4" as="targetPoint" />
          </mxGeometry>
        </mxCell>
        <mxCell id="83I6h4TTCErfjEF87RVj-13" value="&lt;b&gt;&lt;font style=&quot;font-size: 14px;&quot;&gt;Fin de caso de uso&lt;/font&gt;&lt;/b&gt;" style="text;html=1;align=center;verticalAlign=middle;whiteSpace=wrap;rounded=0;" vertex="1" parent="1">
          <mxGeometry x="168" y="276.6" width="130" height="30" as="geometry" />
        </mxCell>
        <mxCell id="83I6h4TTCErfjEF87RVj-14" value="" style="endArrow=none;html=1;rounded=0;edgeStyle=orthogonalEdgeStyle;curved=1;endFill=0;" edge="1" parent="1">
          <mxGeometry width="50" height="50" relative="1" as="geometry">
            <mxPoint x="412" y="180" as="sourcePoint" />
            <mxPoint x="232" y="250" as="targetPoint" />
          </mxGeometry>
        </mxCell>
        <mxCell id="83I6h4TTCErfjEF87RVj-15" value="&lt;span style=&quot;font-family: Arial; font-size: 13px; white-space-collapse: preserve; background-color: rgb(255, 255, 255);&quot;&gt;CU03_3&lt;/span&gt;&lt;div&gt;&lt;span style=&quot;font-family: Arial; font-size: 13px; white-space-collapse: preserve; background-color: rgb(255, 255, 255);&quot;&gt;No existen colaboradores&lt;/span&gt;&lt;br&gt;&lt;div&gt;&lt;/div&gt;&lt;/div&gt;" style="text;html=1;align=center;verticalAlign=middle;whiteSpace=wrap;rounded=0;" vertex="1" parent="1">
          <mxGeometry x="232" y="150" width="182" height="30" as="geometry" />
        </mxCell>
        <mxCell id="MbWqfcI88msltdLsOspE-1" value="&lt;span style=&quot;color: rgb(0, 0, 0); font-family: Arial; font-size: 13px; font-style: normal; font-variant-ligatures: normal; font-variant-caps: normal; font-weight: 400; letter-spacing: normal; orphans: 2; text-align: center; text-indent: 0px; text-transform: none; widows: 2; word-spacing: 0px; -webkit-text-stroke-width: 0px; white-space: pre-wrap; background-color: rgb(255, 255, 255); text-decoration-thickness: initial; text-decoration-style: initial; text-decoration-color: initial; display: inline !important; float: none;&quot;&gt;CU03_4&lt;/span&gt;&lt;div&gt;&lt;span style=&quot;color: rgb(0, 0, 0); font-family: Arial; font-size: 13px; font-style: normal; font-variant-ligatures: normal; font-variant-caps: normal; font-weight: 400; letter-spacing: normal; orphans: 2; text-align: center; text-indent: 0px; text-transform: none; widows: 2; word-spacing: 0px; -webkit-text-stroke-width: 0px; white-space: pre-wrap; background-color: rgb(255, 255, 255); text-decoration-thickness: initial; text-decoration-style: initial; text-decoration-color: initial; display: inline !important; float: none;&quot;&gt;&lt;span style=&quot;white-space-collapse: collapse; font-size: 10pt;&quot; data-sheets-userformat=&quot;{&amp;quot;2&amp;quot;:4801,&amp;quot;3&amp;quot;:{&amp;quot;1&amp;quot;:0},&amp;quot;9&amp;quot;:1,&amp;quot;10&amp;quot;:2,&amp;quot;12&amp;quot;:0,&amp;quot;15&amp;quot;:&amp;quot;Arial&amp;quot;}&quot; data-sheets-value=&quot;{&amp;quot;1&amp;quot;:2,&amp;quot;2&amp;quot;:&amp;quot;El sistema se cae&amp;quot;}&quot; data-sheets-root=&quot;1&quot;&gt;El sistema se cae&lt;/span&gt;&lt;br&gt;&lt;/span&gt;&lt;/div&gt;" style="text;whiteSpace=wrap;html=1;" vertex="1" parent="1">
          <mxGeometry x="419" y="190" width="110" height="40" as="geometry" />
        </mxCell>
        <mxCell id="MbWqfcI88msltdLsOspE-2" value="" style="endArrow=none;html=1;rounded=0;edgeStyle=orthogonalEdgeStyle;curved=1;endFill=0;" edge="1" parent="1">
          <mxGeometry width="50" height="50" relative="1" as="geometry">
            <mxPoint x="410" y="230" as="sourcePoint" />
            <mxPoint x="590" y="350" as="targetPoint" />
          </mxGeometry>
        </mxCell>
      </root>
    </mxGraphModel>
  </diagram>
</mxfile>
